<svg xmlns="http://www.w3.org/2000/svg" width="60" height="60" viewBox="0 0 60 60"><defs><style>.a{fill:#ffdac9;}.b{fill:#333;}</style></defs><g transform="translate(14.355 16.758)"><rect class="a" width="60" height="60" transform="translate(-14.355 -16.758)"/><g transform="translate(0 0.01)"><path class="b" d="M31.029,14.07a1.163,1.163,0,0,0,0-1.684L18.882.359C17.8-.724,16,.96,17.2,2.043l9.14,9.14c.481.481.361.842-.361.842H1.2a1.218,1.218,0,0,0-1.082.722.909.909,0,0,0-.12.481,1.136,1.136,0,0,0,1.2,1.2H25.978c.722,0,.842.361.361.842l-9.14,9.14c-1.082,1.082.6,2.886,1.684,1.684Z" transform="translate(0 -0.01)"/></g></g></svg>