<svg xmlns="http://www.w3.org/2000/svg" width="124.205" height="113.336" viewBox="0 0 124.205 113.336">
  <g id="chef-stamp" transform="translate(-10.634 -285.505) rotate(48)">
    <path id="_x36_3DAnl_1_" d="M102.358,17.954a1.411,1.411,0,0,0-1.4,1.4,1.554,1.554,0,0,0,1.426,1.426,1.407,1.407,0,0,0,1.348-1.426A1.313,1.313,0,0,0,102.358,17.954ZM0,23a1.412,1.412,0,0,0,1.3,1.477,1.555,1.555,0,0,0,1.477-1.348,1.429,1.429,0,0,0-1.348-1.452A1.35,1.35,0,0,0,0,23Z" transform="translate(247.21 175.286) rotate(-21)" fill="#333"/>
    <g id="Group_51" data-name="Group 51" transform="matrix(0.914, -0.407, 0.407, 0.914, 237.405, 145.729)">
      <g id="Group_47" data-name="Group 47" transform="translate(3.55 0)">
        <path id="Path_34" data-name="Path 34" d="M0,3.621l.65-.836,3.9,1.579h0L2.414.836,3.064,0,8.729,4.829l-.743.743L4.55,2.6h0L6.314,5.479l-.371.371L2.879,4.643h0L6.314,7.521l-.65.836Z" transform="translate(0 17.643)" fill="#333"/>
        <path id="Path_35" data-name="Path 35" d="M0,2.043,2.414,0l.65.743-1.671,1.3L2.786,3.714,4.179,2.6l.65.743-1.393,1.3L4.829,6.314,6.5,5.014l.65.836L4.736,7.893Z" transform="translate(7.614 11.236)" fill="#333"/>
        <path id="Path_36" data-name="Path 36" d="M0,2.229l.929-.464L3.993,4.55h0L3.343.464,4.271,0,7.8,6.5l-.929.464L4.736,2.971h0l.65,3.25L4.921,6.5,2.507,4.179h0L4.643,8.171l-.929.464Z" transform="translate(14.95 5.664)" fill="#333"/>
        <path id="Path_37" data-name="Path 37" d="M0,.6,1.486.131A1.372,1.372,0,0,1,2.321.038a1.342,1.342,0,0,1,.65.186,1.119,1.119,0,0,1,.464.464,1.387,1.387,0,0,1,.279.65l.093.279a1.01,1.01,0,0,1,.093.464v.371c0,.093-.093.186-.093.371s0,.186-.093.279a.94.94,0,0,1,.65.371,1.8,1.8,0,0,1,.464.836l.093.371a2.29,2.29,0,0,1,0,1.579,1.791,1.791,0,0,1-1.3.929l-1.3.464ZM1.95,3.2l.464-.186c.371-.093.557-.279.557-.464.093-.186,0-.464-.093-.836a1.184,1.184,0,0,0-.464-.65,1.017,1.017,0,0,0-.743,0L1.3,1.153ZM2.971,6.26l.464-.186A2.03,2.03,0,0,0,3.9,5.8a.482.482,0,0,0,.186-.371V5.053c0-.186-.093-.279-.093-.464C3.9,4.4,3.9,4.217,3.807,4.124s-.186-.186-.186-.279c-.093-.093-.186-.093-.371-.093a1.01,1.01,0,0,0-.464.093l-.464.186Z" transform="translate(24.978 2.562)" fill="#333"/>
        <path id="Path_38" data-name="Path 38" d="M0,.464,3.157,0,3.25,1.021,1.207,1.3l.279,2.136,1.857-.279.093,1.021-1.857.279.279,2.136L3.9,6.314l.186,1.021L.929,7.8Z" transform="translate(34.357 0.279)" fill="#333"/>
        <path id="Path_39" data-name="Path 39" d="M.186,0,1.857.093c1.207,0,1.857.743,1.764,2.229a1.98,1.98,0,0,1-.279,1.114,1.9,1.9,0,0,1-.743.743L3.621,7.614H2.507L1.579,4.457H.929l.093,2.971H0Zm.929,3.343h.557a.7.7,0,0,0,.464-.093c.093-.093.186-.093.279-.186s.093-.186.093-.371V1.764c0-.186-.093-.279-.093-.371-.093-.093-.186-.186-.279-.186a.7.7,0,0,0-.464-.093H1.114Z" transform="translate(43.178 0)" fill="#333"/>
        <path id="Path_40" data-name="Path 40" d="M4.406,2.484,3.384,2.3l.093-.279a1.517,1.517,0,0,0,0-.65c0-.186-.279-.279-.557-.371H2.548c-.093,0-.186.093-.279.186s-.093.186-.186.279c0,.093-.093.186-.093.371s-.093.279-.093.371v.279a.324.324,0,0,0,.093.186s.186.186.279.186l.743.464a1.119,1.119,0,0,1,.464.464c.093.186.186.279.279.464,0,.186.093.371,0,.557,0,.186-.093.464-.093.743l-.279.836a1.666,1.666,0,0,1-.464.65,1.5,1.5,0,0,1-.65.371,1.288,1.288,0,0,1-.836,0,4.527,4.527,0,0,1-.65-.279A1.119,1.119,0,0,1,.32,6.662a4.527,4.527,0,0,1-.279-.65c-.093-.186,0-.464,0-.743L.134,4.9l1.021.186-.093.371a1.178,1.178,0,0,0,.093.557.561.561,0,0,0,.557.279h.464c.093,0,.186-.093.279-.186s.093-.186.186-.279a4.022,4.022,0,0,0,.093-.464A4.022,4.022,0,0,1,2.827,4.9V4.62a.2.2,0,0,0-.186-.186c-.093-.093-.186-.093-.279-.186l-.65-.464A1.756,1.756,0,0,1,.97,2.855a2.642,2.642,0,0,1,0-1.207A6.4,6.4,0,0,1,1.248.905,2.462,2.462,0,0,1,1.713.348.843.843,0,0,1,2.363.07,1.288,1.288,0,0,1,3.2.07a4.527,4.527,0,0,1,.65.279c.186.186.371.279.464.464l.279.557c.093.186,0,.371,0,.65Z" transform="translate(51.494 1.137)" fill="#333"/>
        <path id="Path_41" data-name="Path 41" d="M2.136,1a1.89,1.89,0,0,1,.557-.65A.843.843,0,0,1,3.343.07a.793.793,0,0,1,.65,0,1.721,1.721,0,0,1,.65.186,2.026,2.026,0,0,1,.464.371,1.943,1.943,0,0,1,.371.557,1.58,1.58,0,0,1,.093.65,1.235,1.235,0,0,1-.279.743L3.436,6.012a1.89,1.89,0,0,1-.557.65.843.843,0,0,1-.65.279.793.793,0,0,1-.65,0,1.721,1.721,0,0,1-.65-.186,2.026,2.026,0,0,1-.464-.371,1.942,1.942,0,0,1-.371-.557A1.58,1.58,0,0,1,0,5.177a1.235,1.235,0,0,1,.279-.743ZM1.207,4.991c-.093.186-.186.464-.093.557a.725.725,0,0,0,.371.371,1.178,1.178,0,0,0,.557.093.617.617,0,0,0,.464-.371L4.364,2.205c.093-.186.186-.464.093-.557s-.186-.279-.371-.371a1.178,1.178,0,0,0-.557-.093.617.617,0,0,0-.464.371Z" transform="translate(65.371 6.523)" fill="#333"/>
        <path id="Path_42" data-name="Path 42" d="M4.736,0l.743.65L3.9,5.107h0L6.686,1.671l.836.65L2.786,8.079l-.743-.65L3.621,2.971h0L.836,6.407,0,5.757Z" transform="translate(71.871 11.236)" fill="#333"/>
        <path id="Path_43" data-name="Path 43" d="M5.571,0l.65.836L1.486,4.921,2.879,6.5l-.836.65L0,4.736Z" transform="translate(78.278 17.921)" fill="#333"/>
        <path id="Path_44" data-name="Path 44" d="M2.6,3.529,5.386,0l.65.929L3.993,3.25h0l2.971-.836.557.929L3.157,4.364.557,6.036,0,5.107Z" transform="translate(83.107 23.771)" fill="#333"/>
      </g>
      <g id="Group_48" data-name="Group 48" transform="matrix(0.999, 0.035, -0.035, 0.999, 1.089, 77.273)">
        <path id="Path_45" data-name="Path 45" d="M5.664,0l.65.743L4.179,4.364h0l3.9-1.486.65.743L3.064,8.45l-.65-.836L5.85,4.736h0l-3.064,1.3-.371-.371L4.179,2.786h0L.743,5.664,0,4.829Z" transform="translate(0 4.921)" fill="#333"/>
        <path id="Path_46" data-name="Path 46" d="M4.736,0,7.15,1.95l-.65.743-1.671-1.3L3.436,3.064,4.829,4.179l-.65.743L2.786,3.807,1.393,5.479l1.671,1.3-.65.836L0,5.664Z" transform="translate(7.707 12.071)" fill="#333"/>
        <path id="Path_47" data-name="Path 47" d="M3.343,0l.929.464L3.621,4.55h0L6.686,1.764l.929.464-3.529,6.5-.929-.464L5.293,4.271h0L2.879,6.593l-.464-.279.65-3.25h0L.929,7.057,0,6.593Z" transform="translate(15.6 16.807)" fill="#333"/>
        <path id="Path_48" data-name="Path 48" d="M2.229,0,3.714.464a5.513,5.513,0,0,1,.743.371,2.462,2.462,0,0,1,.464.557,1.58,1.58,0,0,1,.093.65,2.045,2.045,0,0,1-.093.743l-.093.279c-.093.186-.093.371-.186.464l-.279.279c-.093.093-.186.186-.279.186s-.186.093-.371.093a1.5,1.5,0,0,1,.371.65,3.483,3.483,0,0,1-.093.929L3.9,6.036a2,2,0,0,1-.929,1.3,1.573,1.573,0,0,1-1.579,0L0,6.871ZM1.3,6.314l.464.186a1.01,1.01,0,0,0,.464.093A.7.7,0,0,0,2.6,6.407a.482.482,0,0,0,.186-.371c.093-.186.093-.279.186-.464a1.01,1.01,0,0,0,.093-.464V4.736c0-.093-.093-.186-.186-.279a.709.709,0,0,0-.464-.186L1.95,4.086ZM2.321,3.157l.464.186a.993.993,0,0,0,.743,0c.186-.093.279-.371.371-.65a1.017,1.017,0,0,0,0-.743.919.919,0,0,0-.65-.464l-.371-.093Z" transform="translate(25.628 21.078)" fill="#333"/>
        <path id="Path_49" data-name="Path 49" d="M1.114,0,4.271.464,4.086,1.486,2.043,1.207,1.764,3.343l1.857.279L3.436,4.643,1.579,4.364,1.3,6.5l2.043.279L3.157,7.8,0,7.336Z" transform="translate(35.007 23.214)" fill="#333"/>
        <path id="Path_50" data-name="Path 50" d="M0,.093,1.671,0c1.207,0,1.857.65,1.95,2.136A2.011,2.011,0,0,1,3.436,3.25a1.652,1.652,0,0,1-.65.743L3.993,7.336H2.879L1.764,4.179h-.65l.093,3.157H.186Zm1.114,3.25h.557a.7.7,0,0,0,.464-.093c.093-.093.186-.093.279-.186s.093-.186.093-.371V1.764a.7.7,0,0,0-.186-.371c-.093-.093-.186-.186-.279-.186a4.022,4.022,0,0,0-.464-.093H1.021Z" transform="translate(44.107 23.864)" fill="#333"/>
        <path id="Path_51" data-name="Path 51" d="M3.784,1.927l-1.021.186L2.67,1.834a1.512,1.512,0,0,0-.279-.557.783.783,0,0,0-.65-.186.482.482,0,0,0-.371.186c-.093.093-.093.186-.186.279,0,.093-.093.186,0,.279v.371c0,.186.093.279.093.371s.093.186.093.279l.186.186c.093,0,.186.093.371.093l.836.186a1.342,1.342,0,0,1,.65.186,1.63,1.63,0,0,1,.464.371,3.092,3.092,0,0,1,.279.557c.093.186.093.464.186.743a2.571,2.571,0,0,1,.093.836,1.749,1.749,0,0,1-.186.743,2.462,2.462,0,0,1-.464.557,1.75,1.75,0,0,1-.836.371,1.025,1.025,0,0,1-.743,0,.843.843,0,0,1-.65-.279,1.119,1.119,0,0,1-.464-.464,4.527,4.527,0,0,1-.279-.65L.72,5.92l1.021-.186.093.371a.511.511,0,0,0,.279.464.763.763,0,0,0,.65.093.482.482,0,0,0,.371-.186c.093-.093.186-.186.186-.279V5.827a1.01,1.01,0,0,0-.093-.464A4.021,4.021,0,0,0,3.134,4.9c0-.093-.093-.186-.186-.279l-.186-.186c-.093,0-.186-.093-.371-.093l-.836-.186A1.564,1.564,0,0,1,.534,3.6,3.1,3.1,0,0,1,.07,2.484a1.288,1.288,0,0,1,0-.836A2.185,2.185,0,0,1,.255.905,2.462,2.462,0,0,1,.72.348,1.054,1.054,0,0,1,1.462.07a1.025,1.025,0,0,1,.743,0,4.527,4.527,0,0,1,.65.279A1.119,1.119,0,0,1,3.32.812L3.6,1.37Z" transform="translate(52.58 22.68)" fill="#333"/>
        <path id="Path_52" data-name="Path 52" d="M.279,2.507A3.822,3.822,0,0,1,0,1.764a1.377,1.377,0,0,1,.093-.65A1.942,1.942,0,0,1,.464.557,1.63,1.63,0,0,1,.929.186,1.342,1.342,0,0,1,1.579,0h.65c.186.093.464.186.65.279a4.038,4.038,0,0,1,.557.65L5.293,4.364a3.822,3.822,0,0,1,.279.743,1.377,1.377,0,0,1-.093.65,1.943,1.943,0,0,1-.371.557,1.63,1.63,0,0,1-.464.371,1.342,1.342,0,0,1-.65.186h-.65c-.186-.093-.464-.186-.65-.279a4.039,4.039,0,0,1-.557-.65ZM3.064,5.479a.617.617,0,0,0,.464.371,1.178,1.178,0,0,0,.557-.093.725.725,0,0,0,.371-.371.614.614,0,0,0-.093-.557L2.507,1.393a.617.617,0,0,0-.464-.371,1.178,1.178,0,0,0-.557.093.725.725,0,0,0-.371.371.614.614,0,0,0,.093.557Z" transform="translate(66.857 17.736)" fill="#333"/>
        <path id="Path_53" data-name="Path 53" d="M0,2.229l.836-.65L4.921,4.086h0L2.136.65,2.971,0,7.614,5.757l-.743.65L2.786,3.993h0L5.571,7.429l-.836.65Z" transform="translate(73.542 11.978)" fill="#333"/>
        <path id="Path_54" data-name="Path 54" d="M0,.836.65,0,5.386,4.179,6.779,2.6l.836.743L5.571,5.757Z" transform="translate(80.135 7.521)" fill="#333"/>
        <path id="Path_55" data-name="Path 55" d="M4.364,4.364,0,3.25l.65-.929,2.971.929h0L1.579.929,2.229,0,5.014,3.529,7.614,5.2l-.557.929Z" transform="translate(84.314 0)" fill="#333"/>
      </g>
    </g>
    <text id="CHEF_CHOICE" data-name="CHEF
CHOICE" transform="translate(299.4 170.525) rotate(-22)" fill="#333" font-size="29" font-family="SegoeUI-Bold, Segoe UI" font-weight="700"><tspan x="-35.415" y="0">CHEF</tspan><tspan x="-52.513" y="28">CHOICE</tspan></text>
  </g>
</svg>
